<svg xmlns="http://www.w3.org/2000/svg" version="1.1" xmlns:xlink="http://www.w3.org/1999/xlink" xmlns:svgjs="http://svgjs.dev/svgjs" width="1000" height="128" viewBox="0 0 1000 128"><g transform="matrix(1,0,0,1,-0.6060606060606233,-0.22163725188760708)"><svg viewBox="0 0 396 51" data-background-color="#1b4571" preserveAspectRatio="xMidYMid meet" height="128" width="1000" xmlns="http://www.w3.org/2000/svg" xmlns:xlink="http://www.w3.org/1999/xlink"><g id="tight-bounds" transform="matrix(1,0,0,1,0.2400000000000091,0.0883085925489695)"><svg viewBox="0 0 395.52 50.82338281490204" height="50.82338281490204" width="395.52"><g><svg viewBox="0 0 467.3755640219467 60.05665252988004" height="50.82338281490204" width="395.52"><g transform="matrix(1,0,0,1,71.8555640219467,8.300159647762001)"><svg viewBox="0 0 395.52 43.45633323435604" height="43.45633323435604" width="395.52"><g id="textblocktransform"><svg viewBox="0 0 395.52 43.45633323435604" height="43.45633323435604" width="395.52" id="textblock"><g><svg viewBox="0 0 395.52 43.45633323435604" height="43.45633323435604" width="395.52"><g transform="matrix(1,0,0,1,0,0)"><svg width="395.52" viewBox="1.6799999475479126 -36.060001373291016 333.0864429473877 36.55000305175781" height="43.45633323435604" data-palette-color="#ffffff"><g transform="matrix(1,0,0,1,0,0)"><g><svg width="17.057628631591793" viewBox="1.7799999713897705 -36.36000061035156 74.20999908447266 36.36000061035156" height="8.357421875" data-palette-color="#ffffff" id="scriptelement" x="317.70880699157715" y="-36.060001373291016"><path d="M12.91-30.02L1.78-30.02 1.78-36.36 31.64-36.36 31.64-30.02 20.51-30.02 20.51 0 12.91 0 12.91-30.02ZM36.57 0L36.57-36.36 46.06-36.36 56.07-11.93 56.5-11.93 66.51-36.36 75.99-36.36 75.99 0 68.53 0 68.53-23.67 68.23-23.67 58.82-0.18 53.74-0.18 44.33-23.76 44.03-23.76 44.03 0 36.57 0Z" opacity="1" transform="matrix(1,0,0,1,0,0)" fill="#ffffff" class="undefined-123" data-fill-palette-color="primary" id="p-123"></path></svg></g></g><g class="wordmark-text-0" data-fill-palette-color="primary" id="text-0"><path d="M22.92-12.04L31.45-12.04Q31.27-8.33 29.44-5.48 27.61-2.64 24.3-1.07 21 0.49 16.75 0.49L16.75 0.49Q9.74 0.49 5.71-4.08 1.68-8.64 1.68-16.97L1.68-16.97 1.68-18.73Q1.68-23.95 3.5-27.87 5.32-31.79 8.74-33.92 12.16-36.06 16.65-36.06L16.65-36.06Q23.12-36.06 27.05-32.65 30.98-29.25 31.52-23.27L31.52-23.27 22.97-23.27Q22.88-26.51 21.34-27.93 19.8-29.35 16.65-29.35L16.65-29.35Q13.45-29.35 11.96-26.95 10.47-24.56 10.4-19.31L10.4-19.31 10.4-16.8Q10.4-11.11 11.83-8.67 13.26-6.23 16.75-6.23L16.75-6.23Q19.7-6.23 21.26-7.62 22.83-9.01 22.92-12.04L22.92-12.04ZM44.06-35.55L44.06-6.59 58.98-6.59 58.98 0 35.5 0 35.5-35.55 44.06-35.55ZM84.64-21.44L84.64-15.06 71.16-15.06 71.16-6.59 87.08-6.59 87.08 0 62.59 0 62.59-35.55 87.13-35.55 87.13-28.93 71.16-28.93 71.16-21.44 84.64-21.44ZM112.83 0L110.76-6.64 99.02-6.64 96.97 0 87.81 0 100.85-35.55 108.9-35.55 122.04 0 112.83 0ZM104.88-25.59L101.07-13.26 108.71-13.26 104.88-25.59ZM154.31-35.55L154.31 0 145.79 0 133.19-22.12 133.19 0 124.62 0 124.62-35.55 133.19-35.55 145.77-13.43 145.77-35.55 154.31-35.55ZM178.06-9.45L178.06-9.45Q178.06-11.33 176.73-12.38 175.4-13.43 172.06-14.55 168.71-15.67 166.59-16.72L166.59-16.72Q159.68-20.12 159.68-26.05L159.68-26.05Q159.68-29 161.4-31.26 163.12-33.52 166.27-34.78 169.42-36.04 173.35-36.04L173.35-36.04Q177.18-36.04 180.22-34.67 183.26-33.3 184.95-30.77 186.63-28.25 186.63-25L186.63-25 178.09-25Q178.09-27.17 176.76-28.37 175.43-29.57 173.16-29.57L173.16-29.57Q170.86-29.57 169.53-28.55 168.2-27.54 168.2-25.98L168.2-25.98Q168.2-24.61 169.67-23.5 171.13-22.39 174.82-21.2 178.5-20.02 180.87-18.65L180.87-18.65Q186.63-15.33 186.63-9.5L186.63-9.5Q186.63-4.83 183.12-2.17 179.6 0.49 173.47 0.49L173.47 0.49Q169.15 0.49 165.65-1.06 162.15-2.61 160.38-5.31 158.61-8.01 158.61-11.52L158.61-11.52 167.2-11.52Q167.2-8.67 168.68-7.31 170.15-5.96 173.47-5.96L173.47-5.96Q175.6-5.96 176.83-6.87 178.06-7.79 178.06-9.45ZM213.07-21.44L213.07-15.06 199.59-15.06 199.59-6.59 215.51-6.59 215.51 0 191.03 0 191.03-35.55 215.56-35.55 215.56-28.93 199.59-28.93 199.59-21.44 213.07-21.44ZM238.48 0L232.21-12.55 227.57-12.55 227.57 0 219 0 219-35.55 232.99-35.55Q239.31-35.55 242.88-32.74 246.44-29.93 246.44-24.8L246.44-24.8Q246.44-21.09 244.94-18.65 243.44-16.21 240.24-14.7L240.24-14.7 247.66-0.37 247.66 0 238.48 0ZM227.57-28.93L227.57-19.17 232.99-19.17Q235.43-19.17 236.66-20.45 237.9-21.73 237.9-24.02 237.9-26.32 236.65-27.62 235.41-28.93 232.99-28.93L232.99-28.93 227.57-28.93ZM258.35-35.55L265.41-9.67 272.49-35.55 282.06-35.55 270.1 0 260.72 0 248.86-35.55 258.35-35.55ZM306.69-21.44L306.69-15.06 293.21-15.06 293.21-6.59 309.13-6.59 309.13 0 284.65 0 284.65-35.55 309.18-35.55 309.18-28.93 293.21-28.93 293.21-21.44 306.69-21.44Z" fill="#ffffff" data-fill-palette-color="primary"></path></g></svg></g></svg></g></svg></g></svg></g><g><svg viewBox="0 0 61.596566697312866 60.05665252988004" height="60.05665252988004" width="61.596566697312866"><g><svg xmlns="http://www.w3.org/2000/svg" xmlns:xlink="http://www.w3.org/1999/xlink" version="1.1" x="0" y="0" viewBox="10 11 80 78" style="enable-background:new 0 0 100 100;" xml:space="preserve" height="60.05665252988004" width="61.596566697312866" class="icon-icon-0" data-fill-palette-color="accent" id="icon-0"><g fill="#ffffff" data-fill-palette-color="accent"><path d="M32 59h4c0-9.9 12.1-22 22-22v-4c-9.9 0-22-12.1-22-22h-4c0 9.9-12.1 22-22 22v4C19.9 37 32 49.1 32 59zM34 19.4C37 26 43 32 49.6 35 43 38 37 44 34 50.6 31 44 25 38 18.4 35 25 32 31 26 34 19.4z" fill="#ffffff" data-fill-palette-color="accent"></path><path d="M54 56.5c7.2 0 16 9.1 16 16.5h4c0-7.4 8.8-16.5 16-16.5v-4c-7.2 0-16-9.1-16-16.5h-4c0 7.4-8.8 16.5-16 16.5V56.5zM72 43.7c2.3 4.5 6.3 8.5 10.6 10.9-4.4 2.3-8.4 6.4-10.6 10.9-2.3-4.5-6.3-8.5-10.6-10.9C65.7 52.2 69.7 48.2 72 43.7z" fill="#ffffff" data-fill-palette-color="accent"></path><path d="M47 89c0-5.4 6.6-12 12-12v-4c-5.4 0-12-6.6-12-12h-4c0 5.4-6.6 12-12 12v4c5.4 0 12 6.6 12 12H47zM37.8 75c2.9-1.7 5.5-4.3 7.2-7.2 1.7 2.9 4.3 5.5 7.2 7.2-2.9 1.7-5.5 4.3-7.2 7.2C43.3 79.3 40.7 76.7 37.8 75z" fill="#ffffff" data-fill-palette-color="accent"></path></g></svg></g></svg></g></svg></g><defs></defs></svg><rect width="395.52" height="50.82338281490204" fill="none" stroke="none" visibility="hidden"></rect></g></svg></g></svg>